# xmcd CD database file
#
# Track frame offsets:
#	180
#	31297
#	52066
#	80992
#	82110
#	107821
#	110875
#	128985
#	148885
#	152439
#	169711
#	189140
#
# Disc length: 2681 seconds
#
# Revision: 0
# Processed by: cddbd v1.5.1PL2 Copyright (c) Steve Scherf et al.
# Submitted via: CDex 1.50
#
DISCID=a90a770c
DTITLE=Age of Heaven - The Garden of Love
DYEAR=1900
DGENRE=New Age
TTITLE0=The Secret
TTITLE1=The Garden Of Love
TTITLE2=Broke the Chain
TTITLE3=Time Flies
TTITLE4=No Time to Pray
TTITLE5=Organ
TTITLE6=Carrie
TTITLE7=It Comes the Night
TTITLE8=Echoes
TTITLE9=Behind Walls
TTITLE10=The Garden of Love (acoustic)
TTITLE11=Reprise
EXTD=
EXTT0=
EXTT1=
EXTT2=
EXTT3=
EXTT4=
EXTT5=
EXTT6=
EXTT7=
EXTT8=
EXTT9=
EXTT10=
EXTT11=
PLAYORDER=
